<svg xmlns="http://www.w3.org/2000/svg" xmlns:xlink="http://www.w3.org/1999/xlink" width="48" zoomAndPan="magnify" viewBox="0 0 36 36.000001" height="48" preserveAspectRatio="xMidYMid meet" version="1.0"><defs><clipPath id="339d44d3ae"><path d="M 2.808594 5.359375 L 33.457031 5.359375 L 33.457031 29.441406 L 2.808594 29.441406 Z M 2.808594 5.359375 " clip-rule="nonzero"/></clipPath></defs><g clip-path="url(#339d44d3ae)"><path fill="#ff3131" d="M 9.339844 5.347656 C 9.058594 5.355469 8.808594 5.445312 8.59375 5.621094 C 5.117188 8.390625 2.882812 12.664062 2.882812 17.449219 C 2.882812 22.230469 5.117188 26.507812 8.59375 29.273438 C 8.71875 29.375 8.859375 29.449219 9.011719 29.496094 C 9.167969 29.542969 9.324219 29.554688 9.488281 29.539062 C 9.648438 29.519531 9.796875 29.472656 9.941406 29.394531 C 10.082031 29.316406 10.203125 29.214844 10.304688 29.089844 C 10.402344 28.964844 10.476562 28.820312 10.519531 28.667969 C 10.566406 28.511719 10.578125 28.351562 10.558594 28.191406 C 10.539062 28.03125 10.488281 27.882812 10.410156 27.742188 C 10.332031 27.601562 10.226562 27.480469 10.101562 27.382812 C 7.175781 25.054688 5.300781 21.480469 5.300781 17.449219 C 5.300781 13.414062 7.175781 9.839844 10.101562 7.515625 C 10.304688 7.355469 10.445312 7.148438 10.519531 6.898438 C 10.59375 6.652344 10.585938 6.402344 10.5 6.15625 C 10.414062 5.910156 10.265625 5.714844 10.050781 5.566406 C 9.835938 5.417969 9.601562 5.34375 9.339844 5.347656 Z M 26.613281 5.347656 C 26.355469 5.351562 26.125 5.429688 25.917969 5.582031 C 25.710938 5.734375 25.566406 5.929688 25.484375 6.175781 C 25.402344 6.417969 25.398438 6.664062 25.472656 6.910156 C 25.546875 7.15625 25.6875 7.355469 25.890625 7.515625 C 28.8125 9.839844 30.6875 13.414062 30.6875 17.449219 C 30.6875 21.480469 28.8125 25.054688 25.890625 27.382812 C 25.761719 27.480469 25.660156 27.601562 25.578125 27.742188 C 25.5 27.882812 25.449219 28.03125 25.433594 28.191406 C 25.414062 28.351562 25.425781 28.511719 25.46875 28.667969 C 25.511719 28.820312 25.585938 28.964844 25.6875 29.089844 C 25.789062 29.214844 25.910156 29.316406 26.050781 29.394531 C 26.191406 29.472656 26.34375 29.519531 26.503906 29.539062 C 26.664062 29.554688 26.820312 29.542969 26.976562 29.496094 C 27.132812 29.449219 27.269531 29.375 27.394531 29.273438 C 30.871094 26.507812 33.105469 22.230469 33.105469 17.449219 C 33.105469 12.664062 30.871094 8.390625 27.394531 5.621094 C 27.167969 5.4375 26.90625 5.34375 26.613281 5.347656 Z M 12.285156 8.464844 C 12.003906 8.457031 11.75 8.539062 11.527344 8.710938 C 8.859375 10.691406 7.117188 13.871094 7.117188 17.449219 C 7.117188 21.46875 9.308594 24.984375 12.558594 26.863281 C 12.699219 26.945312 12.847656 26.996094 13.007812 27.015625 C 13.164062 27.039062 13.324219 27.027344 13.476562 26.988281 C 13.632812 26.945312 13.773438 26.875 13.902344 26.777344 C 14.027344 26.679688 14.132812 26.5625 14.210938 26.425781 C 14.292969 26.285156 14.34375 26.136719 14.363281 25.976562 C 14.386719 25.820312 14.375 25.660156 14.335938 25.507812 C 14.292969 25.351562 14.222656 25.210938 14.125 25.082031 C 14.027344 24.957031 13.910156 24.851562 13.769531 24.773438 C 11.238281 23.308594 9.53125 20.589844 9.53125 17.449219 C 9.53125 14.652344 10.886719 12.195312 12.96875 10.652344 C 13.179688 10.5 13.328125 10.300781 13.410156 10.054688 C 13.492188 9.808594 13.492188 9.558594 13.414062 9.3125 C 13.339844 9.0625 13.195312 8.859375 12.988281 8.703125 C 12.777344 8.546875 12.542969 8.46875 12.285156 8.464844 Z M 23.667969 8.464844 C 23.414062 8.476562 23.183594 8.5625 22.980469 8.722656 C 22.777344 8.878906 22.640625 9.082031 22.570312 9.328125 C 22.496094 9.574219 22.5 9.820312 22.582031 10.0625 C 22.667969 10.304688 22.8125 10.503906 23.023438 10.652344 C 25.105469 12.195312 26.457031 14.652344 26.457031 17.449219 C 26.457031 20.589844 24.75 23.308594 22.21875 24.773438 C 22.078125 24.851562 21.960938 24.957031 21.863281 25.082031 C 21.765625 25.210938 21.695312 25.351562 21.65625 25.507812 C 21.613281 25.660156 21.605469 25.820312 21.625 25.976562 C 21.644531 26.136719 21.695312 26.285156 21.777344 26.425781 C 21.855469 26.5625 21.960938 26.679688 22.089844 26.777344 C 22.214844 26.875 22.355469 26.945312 22.511719 26.988281 C 22.667969 27.027344 22.824219 27.039062 22.984375 27.015625 C 23.140625 26.996094 23.292969 26.945312 23.429688 26.863281 C 26.679688 24.984375 28.875 21.46875 28.875 17.449219 C 28.875 13.871094 27.128906 10.691406 24.460938 8.710938 C 24.226562 8.53125 23.964844 8.449219 23.667969 8.464844 Z M 15.164062 11.601562 C 14.929688 11.601562 14.710938 11.664062 14.511719 11.789062 C 12.617188 12.960938 11.347656 15.0625 11.347656 17.449219 C 11.347656 19.832031 12.617188 21.933594 14.511719 23.105469 C 14.648438 23.1875 14.796875 23.246094 14.953125 23.269531 C 15.113281 23.296875 15.269531 23.289062 15.425781 23.253906 C 15.582031 23.214844 15.722656 23.152344 15.855469 23.058594 C 15.984375 22.964844 16.089844 22.847656 16.175781 22.710938 C 16.261719 22.574219 16.316406 22.425781 16.339844 22.269531 C 16.367188 22.109375 16.359375 21.953125 16.324219 21.796875 C 16.285156 21.640625 16.222656 21.5 16.128906 21.367188 C 16.035156 21.238281 15.917969 21.132812 15.78125 21.046875 C 14.570312 20.300781 13.765625 18.980469 13.765625 17.449219 C 13.765625 15.917969 14.570312 14.59375 15.78125 13.847656 C 16.015625 13.710938 16.179688 13.511719 16.28125 13.261719 C 16.382812 13.007812 16.398438 12.753906 16.328125 12.492188 C 16.253906 12.230469 16.109375 12.015625 15.894531 11.851562 C 15.679688 11.683594 15.4375 11.601562 15.164062 11.601562 Z M 20.789062 11.601562 C 20.519531 11.609375 20.28125 11.699219 20.074219 11.867188 C 19.863281 12.035156 19.722656 12.246094 19.65625 12.507812 C 19.589844 12.765625 19.609375 13.023438 19.710938 13.269531 C 19.8125 13.519531 19.976562 13.710938 20.207031 13.847656 C 21.417969 14.59375 22.226562 15.917969 22.226562 17.449219 C 22.226562 18.980469 21.417969 20.300781 20.207031 21.046875 C 20.070312 21.132812 19.957031 21.238281 19.863281 21.367188 C 19.769531 21.5 19.703125 21.640625 19.667969 21.796875 C 19.628906 21.953125 19.625 22.109375 19.648438 22.269531 C 19.675781 22.425781 19.730469 22.574219 19.816406 22.710938 C 19.898438 22.847656 20.007812 22.960938 20.136719 23.054688 C 20.265625 23.148438 20.410156 23.214844 20.566406 23.253906 C 20.722656 23.289062 20.878906 23.296875 21.035156 23.269531 C 21.195312 23.242188 21.34375 23.1875 21.480469 23.105469 C 23.375 21.933594 24.644531 19.832031 24.644531 17.449219 C 24.644531 15.0625 23.375 12.960938 21.480469 11.789062 C 21.269531 11.65625 21.039062 11.59375 20.789062 11.601562 Z M 17.996094 15.632812 C 17.753906 15.632812 17.523438 15.679688 17.300781 15.773438 C 17.078125 15.863281 16.882812 15.996094 16.710938 16.164062 C 16.542969 16.335938 16.410156 16.53125 16.320312 16.753906 C 16.226562 16.976562 16.179688 17.207031 16.179688 17.449219 C 16.179688 17.6875 16.226562 17.917969 16.320312 18.140625 C 16.410156 18.363281 16.542969 18.558594 16.710938 18.730469 C 16.882812 18.898438 17.078125 19.03125 17.300781 19.125 C 17.523438 19.214844 17.753906 19.261719 17.996094 19.261719 C 18.234375 19.261719 18.464844 19.214844 18.6875 19.125 C 18.910156 19.03125 19.105469 18.898438 19.277344 18.730469 C 19.445312 18.558594 19.578125 18.363281 19.671875 18.140625 C 19.761719 17.917969 19.808594 17.6875 19.808594 17.449219 C 19.808594 17.207031 19.761719 16.976562 19.671875 16.753906 C 19.578125 16.53125 19.445312 16.335938 19.277344 16.164062 C 19.105469 15.996094 18.910156 15.863281 18.6875 15.773438 C 18.464844 15.679688 18.234375 15.632812 17.996094 15.632812 Z M 17.996094 15.632812 " fill-opacity="1" fill-rule="nonzero"/></g></svg>